<?xml version="1.0" encoding="UTF-8" standalone="no"?>
<svg
   version="1.1"
   viewBox="0 0 16 16"
   id="svg2"
   sodipodi:docname="media-playback-paused.svg"
   inkscape:version="1.4.2 (unknown)"
   xmlns:inkscape="http://www.inkscape.org/namespaces/inkscape"
   xmlns:sodipodi="http://sodipodi.sourceforge.net/DTD/sodipodi-0.dtd"
   xmlns="http://www.w3.org/2000/svg"
   xmlns:svg="http://www.w3.org/2000/svg">
  <sodipodi:namedview
     id="namedview2"
     pagecolor="#ffffff"
     bordercolor="#000000"
     borderopacity="0.25"
     inkscape:showpageshadow="2"
     inkscape:pageopacity="0.0"
     inkscape:pagecheckerboard="0"
     inkscape:deskcolor="#d1d1d1"
     inkscape:zoom="36.625"
     inkscape:cx="8"
     inkscape:cy="8"
     inkscape:window-width="1296"
     inkscape:window-height="800"
     inkscape:window-x="216"
     inkscape:window-y="135"
     inkscape:window-maximized="1"
     inkscape:current-layer="svg2" />
  <defs
     id="defs1">
    <style
       id="current-color-scheme"
       type="text/css">.ColorScheme-Text {
        color:#f2f2f2;
      }</style>
  </defs>
  <path
     class="ColorScheme-Text"
     d="m 5.1875,5.1875 v 5.625 H 6.125 v -5.625 z m 4.6875,0 v 5.625 h 0.9375 v -5.625 z"
     fill="currentColor"
     id="path1"
     style="stroke-width:0.9375" />
  <path
     class="ColorScheme-Text"
     d="M 8,0.5 A 7.5,7.5 0 0 0 0.5,8 7.5,7.5 0 0 0 8,15.5 7.5,7.5 0 0 0 15.5,8 7.5,7.5 0 0 0 8,0.5 Z M 8,1.4375 A 6.5625,6.5625 0 0 1 14.5625,8 6.5625,6.5625 0 0 1 8,14.5625 6.5625,6.5625 0 0 1 1.4375,8 6.5625,6.5625 0 0 1 8,1.4375 Z"
     fill="currentColor"
     id="path2"
     style="stroke-width:0.9375" />
</svg>
