<?xml version="1.0" encoding="UTF-8" standalone="no"?>
<svg
   version="1.1"
   viewBox="0 0 32 32"
   id="svg4"
   sodipodi:docname="audio-volume-muted.svg"
   inkscape:version="1.4.2 (unknown)"
   xmlns:inkscape="http://www.inkscape.org/namespaces/inkscape"
   xmlns:sodipodi="http://sodipodi.sourceforge.net/DTD/sodipodi-0.dtd"
   xmlns="http://www.w3.org/2000/svg"
   xmlns:svg="http://www.w3.org/2000/svg">
  <sodipodi:namedview
     id="namedview4"
     pagecolor="#ffffff"
     bordercolor="#000000"
     borderopacity="0.25"
     inkscape:showpageshadow="2"
     inkscape:pageopacity="0.0"
     inkscape:pagecheckerboard="0"
     inkscape:deskcolor="#d1d1d1"
     inkscape:zoom="18.3125"
     inkscape:cx="16"
     inkscape:cy="16"
     inkscape:window-width="1296"
     inkscape:window-height="800"
     inkscape:window-x="216"
     inkscape:window-y="135"
     inkscape:window-maximized="1"
     inkscape:current-layer="audio" />
  <defs
     id="defs1">
    <style
       id="current-color-scheme"
       type="text/css">.ColorScheme-Text { color:#f2f2f2; }</style>
  </defs>
  <g
     id="audio"
     class="ColorScheme-Text"
     fill="currentColor">
    <path
       d="m12.858 24c0.6591 0 1.1425-0.61168 1.1425-1.2621v-13.421c0-0.65918-0.4834-1.317-1.1601-1.317-0.4483 0-0.7734 0.18457-1.2481 0.65039l-3.8984 3.2705c-0.05274 0.05273-0.12305 0.0791-0.20215 0.0791h-2.4873c-1.3008 0-2.0039 0.72073-2.0039 2.083v3.834c0 1.3623 0.70312 2.083 2.0039 2.083h2.4873c0.0791 0 0.14062 0.0264 0.20215 0.0791l3.8984 3.3144c0.4395 0.4219 0.8086 0.6065 1.2657 0.6065z"
       opacity=".35"
       id="path1" />
    <path
       d="m25.01 7.1387a0.75 0.75 0 0 0-0.56445 0.10156 0.75 0.75 0 0 0-0.22461 1.0371c1.4861 2.3017 2.2779 4.9829 2.2793 7.7227-4.55e-4 2.7402-0.79156 5.4222-2.2773 7.7246a0.75 0.75 0 0 0 0.22461 1.0371 0.75 0.75 0 0 0 1.0371-0.22461c1.6421-2.5446 2.5151-5.5086 2.5156-8.5371-0.001509-3.028-0.87512-5.9913-2.5176-8.5352a0.75 0.75 0 0 0-0.47266-0.32617z"
       opacity=".35"
       id="path2" />
    <path
       d="m20.664 9.6777a0.75 0.75 0 0 0-0.22461 1.0371c1.0173 1.5751 1.5596 3.4102 1.5605 5.2852-4e-4 1.8748-0.54196 3.7099-1.5586 5.2852a0.75 0.75 0 0 0 0.22461 1.0371 0.75 0.75 0 0 0 1.0371-0.22461c1.173-1.8175 1.7964-3.9345 1.7969-6.0977-0.001071-2.1633-0.62513-4.2804-1.7988-6.0977a0.75 0.75 0 0 0-1.0371-0.22461z"
       opacity=".35"
       id="path3" />
    <path
       d="m17.305 11.846a0.75 0.75 0 0 0-0.22461 1.0371c0.59974 0.92902 0.9196 2.0114 0.91992 3.1172-3.26e-4 1.1058-0.32018 2.1882-0.91992 3.1172a0.75 0.75 0 0 0 0.22461 1.0371 0.75 0.75 0 0 0 1.0371-0.22461c0.75612-1.1713 1.1578-2.5356 1.1582-3.9297-4.12e-4 -1.3941-0.40208-2.7584-1.1582-3.9297a0.75 0.75 0 0 0-1.0371-0.22461z"
       opacity=".35"
       id="path4" />
  </g>
</svg>
