<?xml version="1.0" encoding="UTF-8" standalone="no"?>
<svg
   width="24"
   height="24"
   viewBox="0 0 24 24"
   version="1.1"
   id="svg5"
   sodipodi:docname="media-playback-paused.svg"
   inkscape:version="1.4.2 (unknown)"
   xmlns:inkscape="http://www.inkscape.org/namespaces/inkscape"
   xmlns:sodipodi="http://sodipodi.sourceforge.net/DTD/sodipodi-0.dtd"
   xmlns="http://www.w3.org/2000/svg"
   xmlns:svg="http://www.w3.org/2000/svg">
  <defs
     id="defs5" />
  <sodipodi:namedview
     id="namedview5"
     pagecolor="#ffffff"
     bordercolor="#000000"
     borderopacity="0.25"
     inkscape:showpageshadow="2"
     inkscape:pageopacity="0.0"
     inkscape:pagecheckerboard="0"
     inkscape:deskcolor="#d1d1d1"
     inkscape:zoom="24.416667"
     inkscape:cx="12"
     inkscape:cy="12"
     inkscape:window-width="1296"
     inkscape:window-height="800"
     inkscape:window-x="216"
     inkscape:window-y="135"
     inkscape:window-maximized="1"
     inkscape:current-layer="svg5" />
  <style
     type="text/css"
     id="current-color-scheme">
        .ColorScheme-Text {
            color:#f2f2f2;
        }
    </style>
  <g
     transform="translate(1,1)"
     id="g5"
     style="opacity:0.35">
    <g
       id="media-playback-paused"
       transform="translate(48) translate(-24,0)">
      <path
         d="m-24 0h22v22h-22z"
         fill="none"
         id="path1" />
      <g
         class="ColorScheme-Text"
         fill="currentColor"
         fill-rule="evenodd"
         id="g4">
        <path
           d="m-16 8h2v6h-2z"
           id="path2" />
        <path
           d="m-12 8h2v6h-2z"
           id="path3" />
        <path
           d="m-13 3a8 8 0 0 0 -8 8 8 8 0 0 0 8 8 8 8 0 0 0 8-8 8 8 0 0 0 -8-8zm0 1a7 7 0 0 1 7 7 7 7 0 0 1 -7 7 7 7 0 0 1 -7-7 7 7 0 0 1 7-7z"
           id="path4" />
      </g>
    </g>
  </g>
</svg>
