<?xml version="1.0" encoding="UTF-8" standalone="no"?>
<svg
   width="22"
   height="22"
   version="1.1"
   id="svg1"
   sodipodi:docname="go-down.svg"
   inkscape:version="1.4.2 (unknown)"
   xmlns:inkscape="http://www.inkscape.org/namespaces/inkscape"
   xmlns:sodipodi="http://sodipodi.sourceforge.net/DTD/sodipodi-0.dtd"
   xmlns="http://www.w3.org/2000/svg"
   xmlns:svg="http://www.w3.org/2000/svg">
  <sodipodi:namedview
     id="namedview1"
     pagecolor="#ffffff"
     bordercolor="#000000"
     borderopacity="0.25"
     inkscape:showpageshadow="2"
     inkscape:pageopacity="0.0"
     inkscape:pagecheckerboard="0"
     inkscape:deskcolor="#d1d1d1"
     inkscape:zoom="26.636364"
     inkscape:cx="11"
     inkscape:cy="11"
     inkscape:window-width="1296"
     inkscape:window-height="800"
     inkscape:window-x="216"
     inkscape:window-y="135"
     inkscape:window-maximized="1"
     inkscape:current-layer="svg1" />
  <defs
     id="defs1">
    <style
       id="current-color-scheme"
       type="text/css">.ColorScheme-Text { color:#363636; }</style>
  </defs>
  <path
     d="m 11.000005,5.0000071 c -0.477926,0 -0.708669,0.2558913 -0.855472,0.4235485 C 9.9977385,5.5912127 9.9018927,5.7562898 9.8063641,5.9341554 9.6152983,6.2898954 9.4466553,6.7007753 9.2840381,7.1160695 9.1214209,7.5313637 8.9677522,7.9483464 8.8387264,8.2661835 8.7742144,8.4251063 8.7155121,8.5589149 8.6729892,8.6445349 c -0.0043,0.00867 -0.00724,0.00895 -0.011719,0.016741 -0.00779,0.00447 -0.00807,0.00741 -0.016741,0.011719 C 8.5589142,8.7155148 8.4251006,8.7742231 8.2661777,8.8387317 7.9483403,8.9677574 7.5313658,9.1214259 7.1160627,9.284043 6.7007597,9.4466601 6.289888,9.6153029 5.9341478,9.8063686 5.7562735,9.9018972 5.5911962,9.9977429 5.4235476,10.144537 c -0.1676572,0.146794 -0.4235488,0.377537 -0.4235488,0.855471 0,0.477934 0.2558916,0.708668 0.4235488,0.855472 0.1676572,0.146793 0.3327344,0.242639 0.5106002,0.338169 0.3557402,0.191065 0.7666204,0.359708 1.1819149,0.522316 0.4153031,0.162617 0.8322776,0.316286 1.150115,0.445312 0.1589229,0.06451 0.2927315,0.123214 0.3783515,0.165737 0.00927,0.0046 0.01016,0.0069 0.018415,0.01172 0.00423,0.0074 0.00598,0.0086 0.010045,0.01674 0.042523,0.08562 0.1012287,0.219429 0.1657372,0.378352 0.1290258,0.317837 0.2826945,0.734811 0.4453117,1.150114 0.1626172,0.415302 0.3312602,0.826182 0.522326,1.181914 0.095529,0.177873 0.1913744,0.342951 0.3381689,0.510599 0.146794,0.167691 0.377537,0.423549 0.855472,0.423549 0.477934,0 0.708668,-0.255891 0.855471,-0.423549 0.146795,-0.167657 0.242641,-0.332735 0.338169,-0.510599 0.191066,-0.35574 0.359709,-0.76662 0.522318,-1.181914 0.162617,-0.415303 0.316285,-0.832277 0.445311,-1.150114 0.06451,-0.158915 0.123215,-0.292732 0.165737,-0.378352 0.0046,-0.0093 0.0069,-0.01016 0.01172,-0.01842 0.0074,-0.0042 0.0086,-0.006 0.01674,-0.01004 0.08562,-0.04252 0.219428,-0.101229 0.378351,-0.165738 0.317872,-0.12906 0.734812,-0.282694 1.150115,-0.445311 0.415303,-0.162617 0.826183,-0.33126 1.181915,-0.522317 0.177874,-0.09553 0.342952,-0.191374 0.5106,-0.338168 0.167657,-0.146795 0.423549,-0.377538 0.423549,-0.855472 0,-0.477934 -0.255892,-0.708669 -0.423549,-0.855471 C 16.408795,9.9977343 16.243718,9.9018886 16.065852,9.80636 15.710112,9.6152944 15.299232,9.4466515 14.883937,9.2840344 14.468643,9.1214173 14.05166,8.9677488 13.733822,8.8387231 13.574908,8.7742111 13.441091,8.7155088 13.355471,8.672986 c -0.0087,-0.0043 -0.0089,-0.00724 -0.01674,-0.011719 -0.0045,-0.00779 -0.0075,-0.00807 -0.01172,-0.016741 C 13.284454,8.5589115 13.225783,8.4250978 13.161274,8.2661749 13.032248,7.9483464 12.87858,7.5313722 12.715963,7.1160609 12.553345,6.7007496 12.384702,6.2898868 12.193645,5.9341469 12.098117,5.7562726 12.002271,5.5911955 11.855476,5.423547 11.708682,5.2558899 11.477939,4.9999985 11.000005,4.9999985 Z m 0,0.8571426 c 0.528977,0 1.3446,3.049628 1.719343,3.4235136 0.373963,0.3746913 3.423516,1.1903137 3.423516,1.7193427 0,0.529028 -3.04963,1.344599 -3.423516,1.719342 -0.374691,0.373963 -1.190315,3.423513 -1.719343,3.423513 -0.529029,0 -1.344601,-3.049628 -1.719344,-3.423513 -0.3739631,-0.374692 -3.423516,-1.190314 -3.423516,-1.719342 0,-0.529029 3.0496301,-1.3445999 3.423516,-1.7193427 0.3746916,-0.3739628 1.190315,-3.4235136 1.719344,-3.4235136 z"
     style="fill:currentColor;stroke-width:0.857143"
     class="ColorScheme-Text"
     id="path1" />
</svg>
