<?xml version="1.0" encoding="UTF-8" standalone="no"?>
<svg
   width="22"
   height="22"
   version="1.1"
   id="svg1"
   sodipodi:docname="go-up.svg"
   inkscape:version="1.4.2 (unknown)"
   xmlns:inkscape="http://www.inkscape.org/namespaces/inkscape"
   xmlns:sodipodi="http://sodipodi.sourceforge.net/DTD/sodipodi-0.dtd"
   xmlns="http://www.w3.org/2000/svg"
   xmlns:svg="http://www.w3.org/2000/svg">
  <sodipodi:namedview
     id="namedview1"
     pagecolor="#ffffff"
     bordercolor="#000000"
     borderopacity="0.25"
     inkscape:showpageshadow="2"
     inkscape:pageopacity="0.0"
     inkscape:pagecheckerboard="0"
     inkscape:deskcolor="#d1d1d1"
     inkscape:zoom="26.636364"
     inkscape:cx="11"
     inkscape:cy="11.037543"
     inkscape:window-width="1296"
     inkscape:window-height="800"
     inkscape:window-x="213"
     inkscape:window-y="141"
     inkscape:window-maximized="1"
     inkscape:current-layer="svg1" />
  <defs
     id="defs1">
    <style
       id="current-color-scheme"
       type="text/css">.ColorScheme-Text { color:#363636; }</style>
  </defs>
  <path
     d="M 15.242639,6.757368 C 14.904695,6.4194233 14.560592,6.4372058 14.338235,6.451952 c -0.222351,0.014752 -0.406851,0.063706 -0.60017,0.121927 -0.38665,0.1164423 -0.796434,0.2877296 -1.20508,0.4663993 -0.408645,0.1786696 -0.812156,0.3648607 -1.128136,0.4983704 -0.157992,0.066759 -0.294118,0.1198667 -0.384729,0.150341 -0.0092,0.00309 -0.01145,0.00121 -0.02012,0.00355 -0.0087,-0.00235 -0.01095,-4.667e-4 -0.02012,-0.00355 -0.09061,-0.030473 -0.226739,-0.08358 -0.384729,-0.1503413 C 10.279163,7.4051384 9.8756579,7.2189529 9.4670066,7.0402769 9.0583554,6.861601 8.6485767,6.6903193 8.2619266,6.5738768 8.0686015,6.5156496 7.8841011,6.4666955 7.6617565,6.4519491 7.439406,6.4371966 7.0953033,6.4194139 6.757353,6.7573643 6.4194026,7.0953146 6.4371917,7.4394109 6.4519371,7.6617685 c 0.014753,0.2223499 0.063707,0.4068505 0.1219273,0.6001705 0.116443,0.3866497 0.2877305,0.7964345 0.4664069,1.2050732 0.178676,0.4086513 0.3648611,0.8121568 0.4983709,1.1281368 0.06676,0.157991 0.119867,0.294118 0.1503412,0.384729 0.0033,0.0098 0.00231,0.01206 0.00473,0.02131 -0.00224,0.0082 -0.00185,0.01031 -0.00473,0.01894 -0.030474,0.09061 -0.08358,0.226739 -0.1503414,0.384729 -0.1335097,0.31598 -0.3196946,0.719485 -0.4983705,1.128136 -0.1786751,0.408651 -0.3499625,0.818435 -0.4663991,1.20508 -0.058226,0.193324 -0.1071808,0.377825 -0.1219265,0.600169 -0.014776,0.222375 -0.032535,0.566454 0.3054157,0.904405 0.3379504,0.33795 0.6820462,0.320161 0.9044037,0.305415 0.2223511,-0.01475 0.4068523,-0.06371 0.6001696,-0.121927 0.3866502,-0.116442 0.7964349,-0.287729 1.205074,-0.466404 0.4086512,-0.178676 0.8121561,-0.364862 1.1281361,-0.498371 0.157985,-0.06676 0.294119,-0.119867 0.384729,-0.150342 0.0098,-0.0033 0.01206,-0.0023 0.02131,-0.0047 0.0082,0.0023 0.01032,0.0018 0.01894,0.0047 0.09061,0.03048 0.226739,0.08358 0.384729,0.15034 0.316029,0.13351 0.719486,0.319696 1.128137,0.498372 0.408651,0.178676 0.818436,0.349963 1.205074,0.466406 0.193326,0.05823 0.377825,0.107182 0.600169,0.121928 0.222352,0.01475 0.566455,0.03253 0.904405,-0.305416 0.33795,-0.33795 0.320162,-0.682047 0.305415,-0.904404 -0.01475,-0.222356 -0.0637,-0.406856 -0.121922,-0.600175 -0.116442,-0.38665 -0.287729,-0.796435 -0.4664,-1.205081 -0.178669,-0.408644 -0.364861,-0.812156 -0.498371,-1.128136 -0.06675,-0.157986 -0.119867,-0.294118 -0.150341,-0.384729 -0.0031,-0.0092 -0.0012,-0.01141 -0.0035,-0.02012 0.0023,-0.0087 4.03e-4,-0.01101 0.0035,-0.02013 0.03045,-0.09063 0.08358,-0.226738 0.150341,-0.384729 0.133503,-0.315973 0.319689,-0.7194784 0.498371,-1.1281355 0.178681,-0.4086577 0.349956,-0.8184302 0.466405,-1.205074 0.05823,-0.1933246 0.107181,-0.3778251 0.121927,-0.6001702 0.01475,-0.2223505 0.03253,-0.566453 -0.305416,-0.9044034 z m -0.606091,0.6060914 c 0.374043,0.3740432 -1.205637,3.1071886 -1.205031,3.6365486 -5.15e-4,0.529379 1.579113,3.26247 1.205033,3.63655 -0.374079,0.37408 -3.107189,-1.205639 -3.63655,-1.205033 -0.529378,-5.14e-4 -3.2624689,1.57911 -3.6365482,1.205031 -0.37408,-0.37408 1.2056361,-3.10719 1.2050295,-3.636549 5.154e-4,-0.52938 -1.5791123,-3.262471 -1.205033,-3.6365503 0.37408,-0.37408 3.1071897,1.2056385 3.6365507,1.2050325 0.529378,5.154e-4 3.262469,-1.5791098 3.636549,-1.2050298 z"
     style="fill:currentColor;stroke-width:0.857143"
     class="ColorScheme-Text"
     id="path1" />
</svg>
