<?xml version="1.0" encoding="UTF-8" standalone="no"?>
<svg
   width="22"
   height="22"
   version="1.1"
   id="svg1"
   sodipodi:docname="user-desktop-symbolic.svg"
   inkscape:version="1.4.2 (unknown)"
   xmlns:inkscape="http://www.inkscape.org/namespaces/inkscape"
   xmlns:sodipodi="http://sodipodi.sourceforge.net/DTD/sodipodi-0.dtd"
   xmlns="http://www.w3.org/2000/svg"
   xmlns:svg="http://www.w3.org/2000/svg">
  <sodipodi:namedview
     id="namedview1"
     pagecolor="#ffffff"
     bordercolor="#000000"
     borderopacity="0.25"
     inkscape:showpageshadow="2"
     inkscape:pageopacity="0.0"
     inkscape:pagecheckerboard="0"
     inkscape:deskcolor="#d1d1d1"
     inkscape:zoom="26.636364"
     inkscape:cx="11"
     inkscape:cy="11.037543"
     inkscape:window-width="1296"
     inkscape:window-height="800"
     inkscape:window-x="216"
     inkscape:window-y="135"
     inkscape:window-maximized="1"
     inkscape:current-layer="svg1" />
  <defs
     id="defs1">
    <style
       id="current-color-scheme"
       type="text/css">.ColorScheme-Text { color:#363636; }</style>
  </defs>
  <path
     class="ColorScheme-Text"
     d="M 5.375,5 C 4.33625,5 3.5,5.8233846 3.5,6.8461538 V 15.153846 C 3.5,16.176614 4.33625,17 5.375,17 h 11.25 C 17.66375,17 18.5,16.176614 18.5,15.153846 V 6.8461538 C 18.5,5.8233846 17.66375,5 16.625,5 Z m 0,0.9230768 h 11.25 c 0.519375,0 0.9375,0.4116923 0.9375,0.923077 H 4.4375 c 0,-0.5113847 0.418125,-0.923077 0.9375,-0.923077 z M 4.4375,7.7692309 h 13.125 v 7.3846151 c 0,0.511386 -0.418125,0.923077 -0.9375,0.923077 H 5.375 c -0.519375,0 -0.9375,-0.411691 -0.9375,-0.923077 z"
     fill="currentColor"
     id="path1"
     sodipodi:nodetypes="sssssssssssccsccssssc"
     style="stroke-width:0.93026" />
</svg>
