<?xml version="1.0" encoding="UTF-8" standalone="no"?>
<svg
   width="22"
   height="22"
   version="1.1"
   id="svg1"
   sodipodi:docname="audio-volume-muted-blocking-panel.svg"
   inkscape:version="1.4.2 (unknown)"
   xmlns:inkscape="http://www.inkscape.org/namespaces/inkscape"
   xmlns:sodipodi="http://sodipodi.sourceforge.net/DTD/sodipodi-0.dtd"
   xmlns="http://www.w3.org/2000/svg"
   xmlns:svg="http://www.w3.org/2000/svg">
  <sodipodi:namedview
     id="namedview1"
     pagecolor="#ffffff"
     bordercolor="#000000"
     borderopacity="0.25"
     inkscape:showpageshadow="2"
     inkscape:pageopacity="0.0"
     inkscape:pagecheckerboard="0"
     inkscape:deskcolor="#d1d1d1"
     inkscape:zoom="26.636364"
     inkscape:cx="11"
     inkscape:cy="11"
     inkscape:window-width="1296"
     inkscape:window-height="800"
     inkscape:window-x="216"
     inkscape:window-y="135"
     inkscape:window-maximized="1"
     inkscape:current-layer="svg1" />
  <defs
     id="defs1">
    <style
       id="current-color-scheme"
       type="text/css">.ColorScheme-Text { color:#f2f2f2; } .ColorScheme-Highlight { color:#4285f4; }</style>
  </defs>
  <path
     class="ColorScheme-Text"
     d="m15.738 4.2894c-0.376 0.027-0.625 0.488-0.283 0.87a8 8 0 0 1 2.545 5.84 8 8 0 0 1-2.555 5.85c-0.445 0.472 0.18 1.15 0.678 0.73a9 9 0 0 0 2.877-6.58 9 9 0 0 0-2.862-6.573 0.579 0.579 0 0 0-0.4-0.137zm-2.39 1.416c-0.396 0.012-0.643 0.534-0.256 0.914a6 6 0 0 1 1.908 4.38 6 6 0 0 1-1.916 4.388c-0.469 0.446 0.173 1.147 0.68 0.728a7 7 0 0 0 2.236-5.116 7 7 0 0 0-2.225-5.111c-0.147-0.134-0.296-0.186-0.428-0.182zm-4.348 0.294-3 3h-2c-0.554 0-1 0.446-1 1v2c0 0.554 0.446 1 1 1h2l3 3zm2.017 1.184c-0.376 0.016-0.644 0.513-0.29 0.896a4 4 0 0 1 1.273 2.92 4 4 0 0 1-1.278 2.926c-0.472 0.43 0.14 1.152 0.68 0.73a5 5 0 0 0 1.598-3.656 5 5 0 0 0-1.59-3.65 0.536 0.536 0 0 0-0.393-0.166z"
     fill="currentColor"
     opacity=".35"
     id="path1" />
</svg>
