<?xml version="1.0" encoding="UTF-8" standalone="no"?>
<svg
   width="22"
   height="22"
   version="1.1"
   id="svg2"
   sodipodi:docname="kdeconnect-tray.svg"
   inkscape:version="1.4.2 (unknown)"
   xmlns:inkscape="http://www.inkscape.org/namespaces/inkscape"
   xmlns:sodipodi="http://sodipodi.sourceforge.net/DTD/sodipodi-0.dtd"
   xmlns="http://www.w3.org/2000/svg"
   xmlns:svg="http://www.w3.org/2000/svg">
  <sodipodi:namedview
     id="namedview2"
     pagecolor="#ffffff"
     bordercolor="#000000"
     borderopacity="0.25"
     inkscape:showpageshadow="2"
     inkscape:pageopacity="0.0"
     inkscape:pagecheckerboard="0"
     inkscape:deskcolor="#d1d1d1"
     inkscape:zoom="26.636364"
     inkscape:cx="11"
     inkscape:cy="11"
     inkscape:window-width="1728"
     inkscape:window-height="1048"
     inkscape:window-x="0"
     inkscape:window-y="32"
     inkscape:window-maximized="1"
     inkscape:current-layer="svg2" />
  <defs
     id="defs1">
    <style
       id="current-color-scheme"
       type="text/css">.ColorScheme-Text { color:#f2f2f2; } .ColorScheme-Highlight { color:#5294e2; }</style>
  </defs>
  <g
     class="ColorScheme-Text"
     fill="currentColor"
     id="g1"
     transform="matrix(0.99135023,0,0,0.8708305,0.31274885,1.6829867)">
    <path
       class="ColorScheme-Text"
       x="4"
       d="M 6.8953394,2 C 5.8451653,2 5,2.8452426 5,3.8953394 V 17.502658 c 0,1.050173 0.8452426,1.895337 1.8953394,1.895337 H 14.66566 c 1.050175,0 1.89534,-0.845246 1.89534,-1.895337 V 3.8953394 C 16.561,2.8451653 15.715757,2 14.66566,2 Z m 0.037755,0.966566 h 7.6948366 c 0.535477,0 0.966566,0.4310885 0.966566,0.966566 v 13.531926 c 0,0.535476 -0.431089,0.966564 -0.966566,0.966564 H 6.9330955 c -0.5354778,0 -0.9665663,-0.431088 -0.9665663,-0.966564 V 3.933132 c 0,-0.5354775 0.4310885,-0.966566 0.9665652,-0.966566 z"
       id="path1"
       style="stroke-width:0.966566" />
  </g>
  <path
     class="ColorScheme-Text"
     d="M 10.551989,7.4160005 10.303494,8.4082324 C 10.077586,8.468445 9.8604991,8.5578601 9.6577345,8.6742386 L 8.7827317,8.1492306 8.1492296,8.7827322 8.6742379,9.6577365 C 8.5565081,9.8608777 8.4659039,10.078561 8.40474,10.305243 L 7.4159999,10.552 v 0.896008 l 0.9922319,0.248497 c 0.060208,0.225903 0.1496274,0.442994 0.2660061,0.645763 l -0.5250083,0.875002 0.6335021,0.633503 0.8750028,-0.525016 c 0.2031435,0.117736 0.4208255,0.208338 0.6475065,0.269502 L 10.552,14.584 h 0.896007 l 0.248501,-0.992238 c 0.225896,-0.0602 0.44299,-0.149622 0.645756,-0.266005 l 0.875003,0.525016 0.633504,-0.633503 -0.525019,-0.875002 c 0.117738,-0.203145 0.208343,-0.420829 0.269505,-0.647521 L 14.584,11.447998 V 10.55199 L 13.591762,10.303494 C 13.531548,10.077587 13.442137,9.8605002 13.325752,9.6577365 L 13.850771,8.7827322 13.217267,8.1492306 12.342264,8.6742386 C 12.139122,8.5565088 11.921435,8.465905 11.694747,8.4047409 l -0.24675,-0.9887404 z m 0.448004,1.7920117 c 0.0596,1.82e-5 0.119189,0.00272 0.178502,0.0089 0.05934,0.00554 0.118311,0.014603 0.17675,0.026256 0.05901,0.012181 0.117472,0.027421 0.174995,0.045519 0.05697,0.017656 0.11307,0.038081 0.168003,0.061291 0.05491,0.022942 0.108638,0.048653 0.160993,0.076964 0.05231,0.02894 0.103117,0.060478 0.152258,0.0945 0.04965,0.033781 0.09751,0.06998 0.143495,0.1084929 0.04583,0.038621 0.08957,0.079475 0.131259,0.1225015 0.04124,0.042378 0.08035,0.086734 0.117248,0.1329973 0.03745,0.04723 0.07246,0.096255 0.105,0.1469951 0.03238,0.05033 0.06215,0.102385 0.08928,0.155753 0.02655,0.05305 0.05057,0.107336 0.07179,0.162756 0.02214,0.05556 0.04138,0.112231 0.05783,0.169749 0.01574,0.05758 0.02863,0.11607 0.0386,0.175003 0.0092,0.05916 0.01694,0.11868 0.02094,0.178497 0.0046,0.04196 0.0062,0.08394 0.0062,0.125969 -2.2e-5,0.0596 -0.0026,0.119186 -0.0082,0.178508 -0.0062,0.05936 -0.01454,0.118304 -0.02632,0.176741 -0.01217,0.059 -0.02743,0.117475 -0.04553,0.175006 -0.01774,0.05693 -0.03806,0.113058 -0.06124,0.167994 -0.0229,0.05491 -0.04864,0.108637 -0.07693,0.160997 -0.02889,0.05235 -0.06047,0.103116 -0.09449,0.152262 -0.0338,0.04961 -0.07,0.09751 -0.108505,0.143488 -0.03866,0.04583 -0.07945,0.08957 -0.122499,0.131265 -0.0424,0.04122 -0.08676,0.08037 -0.132999,0.117241 -0.04724,0.03747 -0.09624,0.07246 -0.147004,0.105 -0.05031,0.03238 -0.102377,0.06215 -0.155746,0.08928 -0.05306,0.02655 -0.107329,0.05053 -0.162754,0.07177 -0.05563,0.02206 -0.112241,0.0413 -0.169759,0.0577 -0.05754,0.01574 -0.116058,0.02863 -0.175006,0.03861 -0.05916,0.0092 -0.118681,0.01694 -0.178504,0.02095 -0.02505,0.0046 -0.05005,0.0063 -0.07525,0.0082 h -0.12263 c -0.03568,-0.0018 -0.07118,-0.0055 -0.106752,-0.0082 -0.05937,-0.0062 -0.118314,-0.01454 -0.176749,-0.02635 -0.05902,-0.01217 -0.117466,-0.02744 -0.175007,-0.04557 -0.05698,-0.01775 -0.11306,-0.03806 -0.167998,-0.06122 -0.05492,-0.02289 -0.108648,-0.04865 -0.161002,-0.07695 -0.05233,-0.02889 -0.103112,-0.06048 -0.1522524,-0.09448 -0.049625,-0.03379 -0.097513,-0.07 -0.1435038,-0.108506 -0.02697,-0.02378 -0.053228,-0.04821 -0.078761,-0.07347 l -0.078761,-0.07877 c -0.031627,-0.0332 -0.062007,-0.0676 -0.090996,-0.10325 -0.037461,-0.04727 -0.072491,-0.09624 -0.1050026,-0.147009 -0.032345,-0.05031 -0.062094,-0.102346 -0.089245,-0.15574 -0.026613,-0.05306 -0.050536,-0.107339 -0.071769,-0.162759 -0.022125,-0.05561 -0.041404,-0.112237 -0.057793,-0.169759 -0.015768,-0.05754 -0.028583,-0.116058 -0.038531,-0.175004 -0.00996,-0.05915 -0.016938,-0.118683 -0.02096,-0.178501 -0.00357,-0.04195 -0.00554,-0.08396 -0.00554,-0.125998 1.87e-5,-0.05959 0.00272,-0.119181 0.00911,-0.178499 0.00554,-0.05937 0.014603,-0.118313 0.026256,-0.176754 0.012185,-0.05904 0.027422,-0.117465 0.045518,-0.175005 0.017656,-0.05698 0.038081,-0.113059 0.061292,-0.168 0.022942,-0.05494 0.048653,-0.108648 0.076964,-0.161004 0.02894,-0.05232 0.060478,-0.103102 0.0945,-0.1522501 0.033781,-0.049615 0.06998,-0.097517 0.108504,-0.1435039 0.038622,-0.045782 0.079475,-0.089608 0.1225014,-0.1312451 0.042381,-0.041217 0.086734,-0.080377 0.1329978,-0.1172491 0.047222,-0.037453 0.096271,-0.072491 0.1470076,-0.1050023 0.05034,-0.032346 0.102364,-0.062093 0.155739,-0.089245 0.05305,-0.026613 0.107337,-0.050532 0.162757,-0.071769 0.05558,-0.022049 0.112239,-0.041403 0.16976,-0.057792 0.05755,-0.015768 0.116061,-0.028583 0.175001,-0.03853 0.05914,-0.00996 0.118683,-0.016935 0.178504,-0.02096 0.0418,-0.00442 0.08387,-0.00714 0.125999,-0.00911 z"
     fill="currentColor"
     id="path2"
     style="stroke-width:1.02404" />
  <rect
     class="ColorScheme-Text"
     x="7.8774414"
     y="16.228542"
     width="6.2451177"
     height="0.79206812"
     rx="0.26021317"
     ry="0.39603406"
     fill="currentColor"
     opacity=".5"
     id="rect2"
     style="opacity:1;stroke-width:1.28415" />
</svg>
