<?xml version="1.0" encoding="UTF-8" standalone="no"?>
<svg
   version="1.1"
   viewBox="0 0 22 22"
   id="svg2"
   sodipodi:docname="media-playback-playing.svg"
   inkscape:version="1.4.2 (unknown)"
   xmlns:inkscape="http://www.inkscape.org/namespaces/inkscape"
   xmlns:sodipodi="http://sodipodi.sourceforge.net/DTD/sodipodi-0.dtd"
   xmlns="http://www.w3.org/2000/svg"
   xmlns:svg="http://www.w3.org/2000/svg">
  <sodipodi:namedview
     id="namedview2"
     pagecolor="#ffffff"
     bordercolor="#000000"
     borderopacity="0.25"
     inkscape:showpageshadow="2"
     inkscape:pageopacity="0.0"
     inkscape:pagecheckerboard="0"
     inkscape:deskcolor="#d1d1d1"
     inkscape:zoom="26.636364"
     inkscape:cx="11"
     inkscape:cy="11"
     inkscape:window-width="1296"
     inkscape:window-height="800"
     inkscape:window-x="216"
     inkscape:window-y="135"
     inkscape:window-maximized="1"
     inkscape:current-layer="svg2" />
  <defs
     id="defs1">
    <style
       id="current-color-scheme"
       type="text/css">.ColorScheme-Text {
        color:#f2f2f2;
      }</style>
  </defs>
  <path
     class="ColorScheme-Text"
     d="M 11,3.5 A 7.5,7.5 0 0 0 3.5,11 7.5,7.5 0 0 0 11,18.5 7.5,7.5 0 0 0 18.5,11 7.5,7.5 0 0 0 11,3.5 Z m 0,0.9375 A 6.5625,6.5625 0 0 1 17.5625,11 6.5625,6.5625 0 0 1 11,17.5625 6.5625,6.5625 0 0 1 4.4375,11 6.5625,6.5625 0 0 1 11,4.4375 Z"
     fill="currentColor"
     id="path1"
     style="stroke-width:0.9375" />
  <path
     class="ColorScheme-Text"
     d="M 9.591875,7.7862692 C 9.3425469,7.7971235 9.1249531,7.9584785 9.1249531,8.2257223 v 5.5371567 c 0,0.388622 0.4364907,0.579168 0.809325,0.357056 l 4.5684379,-2.689781 c 0.333122,-0.190435 0.325181,-0.673913 0,-0.864263 L 9.9342781,7.8687035 C 9.8251906,7.806731 9.7052,7.7813717 9.591875,7.7863057 Z"
     fill="currentColor"
     id="path2"
     style="stroke-width:0.9375" />
</svg>
