<?xml version="1.0" encoding="UTF-8" standalone="no"?>
<svg
   version="1.1"
   viewBox="0 0 22 22"
   id="svg1"
   sodipodi:docname="media-playback-stopped.svg"
   inkscape:version="1.4.2 (unknown)"
   xmlns:inkscape="http://www.inkscape.org/namespaces/inkscape"
   xmlns:sodipodi="http://sodipodi.sourceforge.net/DTD/sodipodi-0.dtd"
   xmlns="http://www.w3.org/2000/svg"
   xmlns:svg="http://www.w3.org/2000/svg">
  <sodipodi:namedview
     id="namedview1"
     pagecolor="#ffffff"
     bordercolor="#000000"
     borderopacity="0.25"
     inkscape:showpageshadow="2"
     inkscape:pageopacity="0.0"
     inkscape:pagecheckerboard="0"
     inkscape:deskcolor="#d1d1d1"
     inkscape:zoom="26.636364"
     inkscape:cx="11"
     inkscape:cy="11.037543"
     inkscape:window-width="1296"
     inkscape:window-height="800"
     inkscape:window-x="216"
     inkscape:window-y="135"
     inkscape:window-maximized="1"
     inkscape:current-layer="svg1" />
  <defs
     id="defs1">
    <style
       id="current-color-scheme"
       type="text/css">.ColorScheme-Text {
        color:#f2f2f2;
      }</style>
  </defs>
  <path
     class="ColorScheme-Text"
     d="M 11,3.5 A 7.5,7.5 0 0 0 3.5,11 7.5,7.5 0 0 0 11,18.5 7.5,7.5 0 0 0 18.5,11 7.5,7.5 0 0 0 11,3.5 Z m 0,0.9375 A 6.5625,6.5625 0 0 1 17.5625,11 6.5625,6.5625 0 0 1 11,17.5625 6.5625,6.5625 0 0 1 4.4375,11 6.5625,6.5625 0 0 1 11,4.4375 Z"
     fill="currentColor"
     id="path1"
     style="stroke-width:0.9375;opacity:0.35" />
  <rect
     class="ColorScheme-Text"
     x="8.1875"
     y="8.1875"
     width="5.625"
     height="5.625"
     rx="0.9375"
     ry="0.9375"
     fill="currentColor"
     id="rect1"
     style="stroke-width:0.9375;opacity:0.35" />
</svg>
